<?xml version="1.0" encoding="utf-8"?>
<svg xmlns="http://www.w3.org/2000/svg" xmlns:svg="http://www.w3.org/2000/svg" version="1.1" viewBox="0 0 1400 590">
	<title>The titlepage for the Standard Ebooks edition of The Lerouge Case, by Émile Gaboriau. Translated by Vizetelly and Company</title>
	<g aria-label="THE LEROUGE CASE">
		<path d="m 190.11256,68.245613 h 18.33919 V 130 h 17.59064 V 68.245613 h 18.33918 V 52.807016 h -54.26901 z"/>
		<path d="M 273.30701,99.029239 H 298.1959 V 130 h 17.59064 V 52.807016 H 298.1959 V 83.590642 H 273.30701 V 52.807016 H 255.71637 V 130 h 17.59064 z"/>
		<path d="M 376.15204,52.807016 H 331.9883 V 130 h 44.16374 v -15.4386 h -26.5731 V 99.029239 h 25.4503 V 83.590642 h -25.4503 V 68.245613 h 26.5731 z"/>
		<path d="M 439.44006,52.807016 H 421.84942 V 130 h 44.16374 v -15.4386 h -26.5731 z"/>
		<path d="M 523.82747,52.807016 H 479.66373 V 130 h 44.16374 v -15.4386 h -26.5731 V 99.029239 h 25.4503 V 83.590642 h -25.4503 V 68.245613 h 26.5731 z"/>
		<path d="M 538.94007,52.807016 V 130 h 17.59064 V 99.497075 L 580.10966,130 h 22.36257 l -26.5731,-31.906433 c 9.4503,-2.994152 15.81287,-10.760234 15.81287,-22.362574 0,-15.157895 -10.8538,-22.923977 -25.16959,-22.923977 z m 17.59064,34.245615 V 66.842104 h 2.05848 c 6.64328,0 14.59649,0.467836 14.59649,10.105263 0,9.637428 -7.95321,10.105264 -14.59649,10.105264 z"/>
		<path d="m 607.54677,91.356724 c 0,22.549706 16.09357,40.046786 38.92398,40.046786 22.17544,0 38.83041,-17.49708 38.83041,-40.046786 0,-22.549708 -17.40351,-39.953217 -38.83041,-39.953217 -21.23976,0 -38.92398,17.403509 -38.92398,39.953217 z m 18.99416,0 c 0,-11.508772 6.36257,-23.017544 19.92982,-23.017544 13.66082,0 19.83626,11.508772 19.83626,23.017544 0,11.508776 -5.80117,23.017546 -19.83626,23.017546 -14.40936,0 -19.92982,-11.50877 -19.92982,-23.017546 z"/>
		<path d="m 757.38451,52.807016 h -17.59064 v 44.63158 c 0,12.912284 -3.92983,16.654974 -12.53802,16.654974 -8.60818,0 -12.53801,-3.74269 -12.53801,-16.654974 V 52.807016 H 697.1272 v 49.777774 c 0,19.08772 10.47953,28.81872 30.12865,28.81872 19.64913,0 30.12866,-9.731 30.12866,-28.81872 z"/>
		<path d="m 842.49121,86.771929 h -35.64913 v 13.567251 h 17.77778 c 0,9.45029 -8.32748,14.87719 -16.74854,14.87719 -10.8538,0 -19.64912,-10.66666 -19.64912,-23.766078 0,-13.380117 8.79532,-24.140352 19.64912,-24.140352 6.83041,0 12.72515,2.713451 17.21638,9.918129 L 836.59647,64.59649 c -6.73684,-8.140351 -16.18713,-13.192983 -29.75439,-13.192983 -21.7076,0 -37.61403,17.871346 -37.61403,40.046785 0,22.081868 16.8421,39.953218 37.61403,39.953218 15.1579,0 31.4386,-8.32749 35.64913,-27.88304 z"/>
		<path d="M 899.33919,52.807016 H 855.17545 V 130 h 44.16374 v -15.4386 h -26.5731 V 99.029239 h 25.4503 V 83.590642 h -25.4503 V 68.245613 h 26.5731 z"/>
		<path d="m 983.18861,114.09357 c -17.68421,0 -25.4503,-12.35088 -25.4503,-22.736846 0,-10.292397 7.76609,-22.643275 25.4503,-22.643275 8.98245,0 15.15789,4.77193 15.15789,4.77193 l 7.4854,-14.97076 c 0,0 -8.6082,-7.111112 -25.35674,-7.111112 -21.89474,0 -41.82456,17.964913 -41.82456,40.140352 0,22.081871 20.02339,39.859651 41.82456,39.859651 16.74854,0 25.35674,-7.11111 25.35674,-7.11111 l -7.4854,-14.97076 c 0,0 -6.17544,4.77193 -15.15789,4.77193 z"/>
		<path d="m 1056.8582,52.807016 h -16.2807 L 1009.4196,130 h 18.9006 l 5.7076,-15.4386 h 29.3801 L 1069.1155,130 h 18.9006 z m 0.5614,46.31579 h -17.4035 l 8.6082,-22.45614 h 0.1871 z"/>
		<path d="m 1122.5526,51.403507 c -12.4444,0 -25.1696,9.169591 -25.1696,23.578948 0,8.046784 5.4269,15.251462 14.6901,19.836258 9.1696,4.584795 17.4035,7.111107 17.4035,12.725147 0,7.20468 -7.2982,7.57895 -11.1345,7.57895 -8.6082,0 -18.9006,-8.70176 -18.9006,-8.70176 l -8.7953,14.78363 c 0,0 10.9474,10.19883 29.0058,10.19883 15.0644,0 29.0995,-6.45614 29.0995,-24.88889 0,-10.105264 -9.4503,-17.40351 -18.0585,-21.052632 -8.7953,-3.742691 -16.0936,-6.83041 -16.0936,-11.134504 0,-4.210526 3.1813,-6.923976 9.1696,-6.923976 7.9532,0 15.6257,5.333333 15.6257,5.333333 l 7.1112,-14.035088 c 0,0 -9.9182,-7.298246 -23.9533,-7.298246 z"/>
		<path d="m 1206.1375,52.807016 h -44.1638 V 130 h 44.1638 v -15.4386 h -26.5731 V 99.029239 h 25.4503 V 83.590642 h -25.4503 V 68.245613 h 26.5731 z"/>
	</g>
	<g aria-label="ÉMILE GABORIAU">
		<path d="m 365.21985,221.50877 3.92982,5.40351 16.70176,-9.68421 -6.38597,-8.07017 z m 25.26316,10.59649 H 357.3602 V 290 h 33.12281 v -11.57895 h -19.92983 v -11.64912 h 19.08772 v -11.57895 h -19.08772 v -11.50877 h 19.92983 z"/>
		<path d="m 450.92709,290 h 13.19298 l -5.19298,-57.89474 H 444.892 l -12.84211,33.40351 -12.8421,-33.40351 H 405.1727 L 399.97972,290 h 13.19298 l 2.73684,-34.31579 h 0.35088 l 11.85965,33.96491 h 7.85965 l 11.85965,-33.96491 h 0.35087 z"/>
		<path d="M 487.59814,232.10526 H 474.40515 V 290 h 13.19299 z"/>
		<path d="M 514.25384,232.10526 H 501.06085 V 290 h 33.12281 v -11.57895 h -19.92982 z"/>
		<path d="M 578.79441,232.10526 H 545.6716 V 290 h 33.12281 v -11.57895 h -19.92983 v -11.64912 h 19.08772 v -11.57895 h -19.08772 v -11.50877 h 19.92983 z"/>
		<path d="m 667.91832,257.57895 h -26.73684 v 10.17544 h 13.33333 c 0,7.08772 -6.24561,11.15789 -12.5614,11.15789 -8.14035,0 -14.73684,-8 -14.73684,-17.82456 0,-10.03509 6.59649,-18.10526 14.73684,-18.10526 5.12281,0 9.54386,2.03508 12.91228,7.43859 l 8.63158,-9.47368 c -5.05263,-6.10526 -12.14035,-9.89474 -22.31579,-9.89474 -16.2807,0 -28.21053,13.40351 -28.21053,30.03509 0,16.5614 12.63158,29.96491 28.21053,29.96491 11.36842,0 23.57895,-6.24561 26.73684,-20.91228 z"/>
		<path d="M 708.08497,232.10526 H 695.87444 L 672.50602,290 h 14.17544 l 4.2807,-11.57895 h 22.03509 L 717.27795,290 h 14.17544 z m 0.42105,34.73685 H 695.45339 L 701.90953,250 h 0.14035 z"/>
		<path d="M 738.6431,232.10526 V 290 h 21.96491 c 12,0 18.94737,-6.59649 18.94737,-16.14035 0,-9.33333 -5.12281,-13.33333 -12.35088,-14.59649 4.91228,-2.52632 7.22807,-7.08772 7.22807,-12.42105 0,-11.01755 -7.85965,-14.73685 -17.82456,-14.73685 z m 13.19298,22.66667 V 242.2807 h 1.05263 c 5.75439,0 8.77193,1.75439 8.77193,5.89474 0,4.8421 -3.08772,6.59649 -8.77193,6.59649 z m 0,25.05263 v -13.68421 h 4.14035 c 6.24562,0 9.68421,1.89474 9.68421,7.22807 0,4.5614 -3.43859,6.45614 -9.68421,6.45614 z"/>
		<path d="m 787.78452,261.01754 c 0,16.91228 12.07018,30.03509 29.19298,30.03509 16.63158,0 29.12281,-13.12281 29.12281,-30.03509 0,-16.91228 -13.05263,-29.96491 -29.12281,-29.96491 -15.92982,0 -29.19298,13.05263 -29.19298,29.96491 z m 14.24562,0 c 0,-8.63157 4.77193,-17.26315 14.94736,-17.26315 10.24562,0 14.8772,8.63158 14.8772,17.26315 0,8.63158 -4.35088,17.26316 -14.8772,17.26316 -10.80701,0 -14.94736,-8.63158 -14.94736,-17.26316 z"/>
		<path d="M 856.9216,232.10526 V 290 h 13.19298 V 267.12281 L 887.79879,290 h 16.77193 L 884.6409,266.07018 c 7.08772,-2.24562 11.85965,-8.07018 11.85965,-16.77193 0,-11.36842 -8.14035,-17.19299 -18.87719,-17.19299 z m 13.19298,25.68421 v -15.15789 h 1.54386 c 4.98246,0 10.94737,0.35088 10.94737,7.57895 0,7.22807 -5.96491,7.57894 -10.94737,7.57894 z"/>
		<path d="M 925.4161,232.10526 H 912.22312 V 290 h 13.19298 z"/>
		<path d="M 968.28232,232.10526 H 956.0718 L 932.70338,290 h 14.17544 l 4.2807,-11.57895 h 22.03509 L 977.47531,290 h 14.17544 z m 0.42106,34.73685 H 955.65075 L 962.10689,250 h 0.14035 z"/>
		<path d="m 1043.3317,232.10526 h -13.193 v 33.47369 c 0,9.68421 -2.9474,12.49123 -9.4035,12.49123 -6.4562,0 -9.4035,-2.80702 -9.4035,-12.49123 v -33.47369 h -13.19303 v 37.33334 c 0,14.31579 7.85963,21.61403 22.59653,21.61403 14.7368,0 22.5965,-7.29824 22.5965,-21.61403 z"/>
	</g>
	<g aria-label="translated by">
		<path d="m 594.75525,463.42189 c 0,1.19023 2.50797,0.25505 2.50797,1.14772 0,1.14771 -1.78533,8.034 -1.78533,11.94474 0,3.31562 1.57279,3.99575 2.72051,3.99575 2.63549,0 6.24867,-2.89055 6.24867,-3.99575 0,-0.59512 -0.34007,-0.59512 -0.46759,-0.59512 -0.68013,0 -1.65781,1.87036 -3.99575,1.87036 -0.17003,0 -1.74283,-0.085 -1.74283,-2.33794 0,-0.68013 0.97769,-6.20617 1.36026,-8.84166 0.25505,-1.74283 0.12752,-2.50797 1.36025,-2.50797 0.93518,0 2.76302,0.21254 3.44315,0.21254 0.76514,0 1.02019,-0.25505 1.02019,-1.23273 0,-0.5101 -0.21254,-0.80765 -1.10521,-0.80765 -0.46758,0 -0.80765,0.0425 -2.46546,0.0425 -1.40276,0 -1.48778,-0.0425 -1.48778,-0.29755 0,-0.63762 0.76515,-2.63549 0.76515,-3.1881 0,-0.38257 -0.21254,-0.51009 -0.42508,-0.51009 -0.68013,0 -0.76515,0.5526 -2.46547,2.33793 -1.87035,1.95537 -3.48565,1.91286 -3.48565,2.76302 z"/>
		<path d="m 606.86272,467.41764 c 0,0.59511 0.34006,0.72264 0.51009,0.72264 0.21254,0 0.34006,-0.12753 0.46759,-0.25505 0.25505,-0.29756 0.59511,-2.84804 2.33794,-2.84804 0.76514,0 1.44527,0.76515 1.44527,2.89055 0,3.18809 -1.82784,9.43677 -1.82784,11.13708 0,1.0202 0.85015,1.10521 1.27523,1.10521 h 0.21254 c 1.53029,0 1.44528,0 2.38045,-7.22635 l 0.21254,-1.40277 c 0.21254,-1.78533 1.27524,-7.35387 3.1881,-7.35387 1.53028,0 1.36025,1.78533 2.29543,1.78533 0.76514,0 0.85016,-1.31775 0.93517,-1.6153 0.12753,-0.46759 0.46759,-1.02019 0.46759,-1.5728 0,-0.59511 -0.46759,-1.31774 -1.57279,-1.31774 -3.14559,0 -5.27099,4.37832 -5.56855,4.37832 -0.085,0 -0.12752,-0.0425 -1.19022,-2.80553 -0.25505,-0.68013 -0.68013,-1.48778 -1.5728,-1.48778 -0.38257,0 -3.99574,1.02019 -3.99574,5.8661 z"/>
		<path d="m 620.45398,475.15409 c 0,2.76302 0.51009,5.48353 4.54835,5.48353 4.03826,0 7.56642,-5.10096 7.77896,-5.10096 0.29755,0 -0.085,4.7609 2.63549,4.7609 1.14772,0 3.06057,-1.95537 4.12327,-3.48566 0.55261,-0.76514 0.76515,-1.40276 0.76515,-1.82784 0,-0.17003 -0.0425,-0.46759 -0.38257,-0.46759 -0.80766,0 -1.70032,2.76302 -3.10309,2.76302 -0.80765,0 -1.44527,-1.40276 -1.44527,-2.50797 0,-1.6153 0.42508,-3.57067 0.76515,-5.44102 0.34006,-1.91286 0.59511,-3.86823 0.97768,-5.44102 0.29756,-1.23273 0.85016,-2.25292 0.85016,-2.93305 0,-0.46759 -0.21254,-0.63762 -0.46759,-0.63762 -0.85016,0 -1.36025,2.08289 -2.21041,2.08289 -1.40277,0 -2.29543,-0.46759 -3.61318,-0.46759 -1.10521,0 -1.95537,0.21254 -3.10308,0.76515 -2.25292,1.0627 -4.20829,3.10308 -5.73858,5.52603 -1.31775,2.1254 -2.38044,4.54836 -2.38044,6.9288 z m 2.97555,-0.25505 c 0,-0.76514 0.085,-1.53028 0.21254,-2.29543 0.38258,-2.21041 1.40277,-4.12327 2.6355,-6.16365 1.27524,-2.16791 3.52816,-3.44315 5.27099,-3.44315 0.89266,0 2.80552,0.29756 2.80552,1.48778 0,0.12753 -1.14771,7.94899 -2.1679,9.98937 -0.38258,0.76515 -2.38045,3.82572 -5.44102,3.82572 -1.78534,0 -3.31563,-1.27524 -3.31563,-3.40064 z"/>
		<path d="m 641.69999,466.35494 c 0,0.46759 0.085,0.80765 0.38257,0.80765 0.93518,0 1.40277,-2.38044 2.72051,-2.38044 0.42508,0 0.97769,0.85016 0.97769,2.33794 0,3.27311 -1.87036,9.86184 -1.87036,11.64718 0,1.23273 0.34007,1.31775 1.48778,1.31775 1.10521,0 1.44527,-0.17004 1.5728,-1.10521 0.085,-0.59511 -0.21254,-0.085 0.85016,-5.82359 1.02019,-5.48353 0.51009,-5.10096 2.33794,-7.69395 0.97768,-1.40276 1.78533,-1.87035 2.76301,-1.87035 2.76302,0 2.97556,2.80553 2.97556,3.48566 0,1.57279 -0.89267,7.26886 -0.89267,10.49947 0,1.48777 0.72264,2.678 1.5728,2.678 1.87035,0 5.61105,-2.97556 5.61105,-4.63337 0,-0.25505 -0.085,-0.5101 -0.38257,-0.5101 -0.63762,0 -0.80765,0.5101 -1.31775,1.14772 0,0 -0.97768,0.93517 -1.70032,0.93517 -0.46758,0 -0.80765,-0.34006 -0.80765,-1.53028 0,-1.44527 0.72264,-5.95112 0.72264,-8.92668 0,-2.678 -0.59511,-5.31349 -3.57067,-5.31349 -1.78534,0 -4.03826,1.53028 -5.18597,2.42295 -1.5728,1.19022 -1.87035,2.1254 -2.1254,2.1254 -0.38257,0 0.51009,-4.46334 -1.95537,-4.46334 -1.6153,0 -4.16578,3.1881 -4.16578,4.84591 z"/>
		<path d="m 663.65071,477.70457 c 0,2.25292 3.06057,2.80553 4.71838,2.80553 5.44102,0 6.63125,-4.03826 6.63125,-5.56855 0,-2.84803 -1.61531,-4.03826 -2.93305,-5.52603 -1.02019,-1.10521 -3.35813,-2.84804 -3.35813,-4.46334 0,-1.27524 0.63762,-2.25292 2.25292,-2.25292 1.65781,0 1.82784,2.38044 3.35813,2.38044 0.21254,0 1.6153,-0.12752 1.6153,-1.44527 0,-1.65781 -1.65781,-2.21041 -3.95324,-2.21041 -3.31562,0 -5.78108,1.95536 -5.78108,4.8034 0,2.55048 1.6153,3.65568 3.31562,5.39851 1.53029,1.53029 2.93305,2.76302 2.93305,4.76089 0,0.5101 -0.29756,2.72051 -3.40064,2.72051 -2.59299,0 -1.87035,-2.93305 -4.03826,-2.93305 -0.51009,0 -1.36025,0.21254 -1.36025,1.53029 z"/>
		<path d="m 678.75033,476.34431 c 0,3.99575 1.23273,3.99575 2.08289,3.99575 0.80765,0 2.59299,-0.85016 3.6982,-2.12539 1.02019,-1.19023 2.12539,-2.6355 2.12539,-3.06058 0,-0.42508 -0.21254,-0.68013 -0.51009,-0.68013 -1.10521,0 -1.53029,3.01807 -3.86823,3.01807 -0.5526,0 -0.68012,-0.21254 -0.68012,-1.65781 0,-1.44527 0.51009,-4.12327 1.23273,-9.13921 1.36025,-9.13922 0.63762,-7.56642 2.21041,-15.81297 0.12752,-0.80765 0.42508,-1.36025 0.42508,-1.95537 0,-0.42507 -0.21254,-0.68012 -0.89267,-0.68012 -1.1052,0 -2.04038,0.42508 -5.14346,0.63762 -0.5526,0.0425 -0.63762,0.38257 -0.63762,0.59511 0,0.46759 0.38257,0.59511 1.23273,0.59511 0.5101,0 0.59511,-0.0425 1.23273,-0.0425 0.63762,0 1.0627,0.34007 1.0627,0.85016 0,0.5101 -0.63762,4.33581 -1.36025,8.92667 -0.42508,2.72051 -0.63762,5.73858 -1.0202,8.41658 -0.085,0.68013 -1.19022,5.69607 -1.19022,8.11902 z"/>
		<path d="m 689.28036,475.15409 c 0,2.76302 0.51009,5.48353 4.54835,5.48353 4.03826,0 7.56642,-5.10096 7.77896,-5.10096 0.29755,0 -0.085,4.7609 2.63549,4.7609 1.14772,0 3.06058,-1.95537 4.12328,-3.48566 0.5526,-0.76514 0.76514,-1.40276 0.76514,-1.82784 0,-0.17003 -0.0425,-0.46759 -0.38257,-0.46759 -0.80765,0 -1.70032,2.76302 -3.10308,2.76302 -0.80766,0 -1.44528,-1.40276 -1.44528,-2.50797 0,-1.6153 0.42508,-3.57067 0.76515,-5.44102 0.34006,-1.91286 0.59511,-3.86823 0.97768,-5.44102 0.29756,-1.23273 0.85016,-2.25292 0.85016,-2.93305 0,-0.46759 -0.21254,-0.63762 -0.46759,-0.63762 -0.85016,0 -1.36025,2.08289 -2.21041,2.08289 -1.40276,0 -2.29543,-0.46759 -3.61318,-0.46759 -1.10521,0 -1.95537,0.21254 -3.10308,0.76515 -2.25292,1.0627 -4.20829,3.10308 -5.73858,5.52603 -1.31774,2.1254 -2.38044,4.54836 -2.38044,6.9288 z m 2.97556,-0.25505 c 0,-0.76514 0.085,-1.53028 0.21253,-2.29543 0.38258,-2.21041 1.40277,-4.12327 2.6355,-6.16365 1.27524,-2.16791 3.52816,-3.44315 5.27099,-3.44315 0.89266,0 2.80552,0.29756 2.80552,1.48778 0,0.12753 -1.14771,7.94899 -2.1679,9.98937 -0.38257,0.76515 -2.38045,3.82572 -5.44102,3.82572 -1.78534,0 -3.31562,-1.27524 -3.31562,-3.40064 z"/>
		<path d="m 711.15402,463.42189 c 0,1.19023 2.50797,0.25505 2.50797,1.14772 0,1.14771 -1.78533,8.034 -1.78533,11.94474 0,3.31562 1.57279,3.99575 2.72051,3.99575 2.63549,0 6.24867,-2.89055 6.24867,-3.99575 0,-0.59512 -0.34006,-0.59512 -0.46759,-0.59512 -0.68012,0 -1.65781,1.87036 -3.99575,1.87036 -0.17003,0 -1.74282,-0.085 -1.74282,-2.33794 0,-0.68013 0.97768,-6.20617 1.36025,-8.84166 0.25505,-1.74283 0.12753,-2.50797 1.36026,-2.50797 0.93517,0 2.76302,0.21254 3.44314,0.21254 0.76515,0 1.02019,-0.25505 1.02019,-1.23273 0,-0.5101 -0.21254,-0.80765 -1.1052,-0.80765 -0.46759,0 -0.80765,0.0425 -2.46547,0.0425 -1.40276,0 -1.48777,-0.0425 -1.48777,-0.29755 0,-0.63762 0.76514,-2.63549 0.76514,-3.1881 0,-0.38257 -0.21254,-0.51009 -0.42508,-0.51009 -0.68013,0 -0.76514,0.5526 -2.46546,2.33793 -1.87035,1.95537 -3.48566,1.91286 -3.48566,2.76302 z"/>
		<path d="m 723.40296,473.75133 c 0,3.78321 1.31775,6.75877 6.71626,6.75877 3.69819,0 7.39639,-2.97556 7.39639,-3.95325 0,-0.25504 -0.17003,-0.42508 -0.5101,-0.42508 -0.46759,0 -2.1679,1.82785 -4.59086,1.82785 -4.20829,0 -6.12115,-2.1254 -6.12115,-5.3135 0,-1.10521 0.12753,-1.74283 0.72264,-1.74283 3.99575,-0.0425 6.29118,-0.97768 6.67375,-1.14771 0.80765,-0.34006 4.12327,-2.08289 4.12327,-5.14346 0,-1.87036 -1.70032,-3.14559 -3.69819,-3.14559 -2.38045,0 -4.33581,0.76514 -5.90861,2.25292 -2.93305,2.72051 -4.8034,6.37619 -4.8034,10.03188 z m 3.48566,-4.42083 c 0,-0.5526 0.97768,-3.27311 2.25292,-4.59086 1.1052,-1.14772 2.42295,-1.99788 3.48565,-1.99788 0.72264,0 2.25292,0.38258 2.25292,1.99788 0,2.678 -3.48565,5.44102 -7.60892,5.44102 -0.29756,0 -0.38257,-0.5526 -0.38257,-0.85016 z"/>
		<path d="m 739.86816,474.6865 c 0,3.1881 1.48777,5.65356 5.10095,5.65356 4.20829,0 6.3762,-4.76089 6.75877,-4.76089 0.59511,0 -0.38257,4.76089 2.59299,4.76089 2.76301,0 5.44102,-4.2933 5.44102,-5.18597 0,-0.17003 -0.12753,-0.38257 -0.46759,-0.38257 -0.68013,0 -1.65781,2.63549 -3.52816,2.63549 -0.97769,0 -1.10521,-0.89266 -1.10521,-1.82784 0,-1.27524 0.42508,-3.95324 0.89267,-7.18385 2.38044,-17.38575 2.80552,-18.74601 2.80552,-19.85122 0,-0.38257 -0.29755,-0.72263 -0.68013,-0.72263 -1.14771,0 -0.89266,0.085 -3.27311,0.68013 -1.19022,0.29755 -2.678,0.12752 -2.678,0.85015 0,0.29756 0.25505,0.46759 0.68013,0.46759 0.0425,0 1.02019,-0.0425 1.48778,-0.0425 0.63762,0 1.23273,0.42508 1.23273,1.0627 0,0.29756 -1.40277,11.47715 -1.53029,11.47715 -1.19022,0 -2.04038,-0.5526 -3.14559,-0.5526 -5.05845,0 -10.58448,6.33369 -10.58448,12.92242 z m 2.97555,-1.19022 c 0,-4.46334 3.48566,-10.83953 7.39639,-10.83953 1.14772,0 2.84803,0.5526 2.84803,1.70032 0,1.70032 -0.63762,9.18172 -2.33793,11.30712 -1.10521,1.40276 -2.76302,2.21041 -4.29331,2.21041 -2.59299,0 -3.61318,-1.91286 -3.61318,-4.37832 z"/>
		<path d="m 771.07033,476.98193 c 0,2.46547 2.678,3.57067 5.18597,3.57067 6.58874,0 11.60468,-7.60892 11.60468,-13.39001 0,-2.76301 -1.48778,-5.39851 -4.67588,-5.39851 -4.88842,0 -6.88629,3.95324 -7.4814,3.95324 -0.085,0 -0.21254,-0.34006 -0.21254,-0.63762 0,-3.06057 2.72051,-15.72795 2.72051,-16.49309 0,-0.46759 -0.34007,-0.76514 -0.80765,-0.76514 -0.25505,0 -1.02019,0.25505 -2.67801,0.46759 -1.95536,0.25504 -3.14558,0.21254 -3.14558,1.06269 0,0.59512 0.34006,0.59512 0.80765,0.59512 0.63762,0 1.1052,-0.085 1.74282,-0.085 0.85016,0 1.0627,0.29756 1.0627,0.5101 0,1.02019 -0.25505,2.50797 -0.63762,4.33581 -0.63762,3.14559 -1.14771,7.26886 -1.91286,11.68969 -0.59511,3.44315 -1.57279,7.86397 -1.57279,10.58448 z m 2.80553,-0.51009 c 0,-0.42508 0.46758,-4.97343 1.70031,-8.33156 1.36026,-3.6982 4.12328,-4.12328 5.14347,-4.12328 2.33794,0 4.16578,1.95537 4.16578,4.33582 0,4.88841 -3.91073,11.00956 -7.73645,11.00956 -2.63549,0 -3.27311,-1.44527 -3.27311,-2.89054 z"/>
		<path d="m 789.50617,485.3135 c 0,1.95536 1.70032,2.50797 3.52816,2.50797 3.99575,0 6.71626,-4.84591 8.71414,-9.90436 2.50797,-6.33369 3.52816,-12.19979 3.52816,-14.11265 0,-1.31774 -0.72264,-2.25292 -1.65781,-2.25292 -1.02019,0 -1.44527,0.80765 -1.44527,1.5728 0,1.14771 1.0627,1.99787 1.0627,3.2306 0,2.84804 -0.93518,7.39639 -1.53029,7.39639 -0.46759,0 -4.50585,-12.07226 -8.62912,-12.07226 -2.59299,0 -3.44314,3.69819 -3.44314,5.48352 0,0.72264 0.17003,0.93518 0.42507,0.93518 1.27524,0 0.38258,-3.1881 2.84804,-3.1881 2.25292,0 6.9288,10.96706 6.9288,13.3475 0,1.61531 -2.80553,7.05633 -5.27099,7.05633 -1.95537,0 -1.99787,-1.40277 -3.69819,-1.40277 -0.72264,0 -1.36026,0.68013 -1.36026,1.40277 z"/>
	</g>
	<g aria-label="VIZETELLY AND COMPANY">
		<path d="m 344.38194,540 h 6.92398 l 16.18713,-38.59649 h -9.91813 l -9.73099,25.35672 -9.731,-25.35672 h -9.91813 z"/>
		<path d="m 382.74817,501.40351 h -8.79532 V 540 h 8.79532 z"/>
		<path d="m 425.81103,501.40351 h -31.76608 v 7.7193 h 16.37427 L 391.3315,540 h 33.21638 v -7.7193 h -17.87135 z"/>
		<path d="M 456.47332,501.40351 H 434.39144 V 540 h 22.08188 v -7.7193 h -13.28655 v -7.76608 h 12.72514 v -7.7193 h -12.72514 v -7.67251 h 13.28655 z"/>
		<path d="m 464.09685,509.12281 h 9.16959 V 540 h 8.79532 v -30.87719 h 9.16959 v -7.7193 h -27.1345 z"/>
		<path d="M 521.48063,501.40351 H 499.39875 V 540 h 22.08188 v -7.7193 h -13.28655 v -7.76608 h 12.72514 v -7.7193 h -12.72514 v -7.67251 h 13.28655 z"/>
		<path d="m 540.33223,501.40351 h -8.79532 V 540 h 22.08187 v -7.7193 h -13.28655 z"/>
		<path d="m 571.73939,501.40351 h -8.79532 V 540 h 22.08187 v -7.7193 h -13.28655 z"/>
		<path d="m 586.48573,501.40351 14.22222,21.28655 V 540 h 8.79532 v -17.30994 l 14.22222,-21.28655 H 613.1524 l -8.04679,12.35088 -8.04678,-12.35088 z"/>
		<path d="m 667.5391,501.40351 h -8.14035 L 643.8198,540 h 9.4503 l 2.8538,-7.7193 h 14.69006 l 2.8538,7.7193 h 9.45029 z m 0.2807,23.15789 h -8.70175 l 4.30409,-11.22807 h 0.0936 z"/>
		<path d="m 698.37317,516.04678 h 0.0936 L 713.81176,540 h 8.79533 v -38.59649 h -8.79533 v 23.95321 h -0.0936 l -15.34503,-23.95321 h -8.79532 V 540 h 8.79532 z"/>
		<path d="M 733.22918,501.40351 V 540 h 11.18129 c 10.61988,0 19.46199,-8.04678 19.46199,-19.32164 0,-11.22807 -8.88889,-19.27485 -19.46199,-19.27485 z m 8.79532,30.73684 v -22.87719 h 1.35673 c 6.54971,0 10.99415,5.00585 10.99415,11.46199 -0.0468,6.45614 -4.49123,11.4152 -10.99415,11.4152 z"/>
		<path d="m 809.63707,532.04678 c -8.84211,0 -12.72515,-6.17544 -12.72515,-11.36842 0,-5.1462 3.88304,-11.32164 12.72515,-11.32164 4.49123,0 7.57895,2.38597 7.57895,2.38597 l 3.74269,-7.48538 c 0,0 -4.3041,-3.55556 -12.67837,-3.55556 -10.94737,0 -20.91228,8.98246 -20.91228,20.07018 0,11.04094 10.0117,19.92982 20.91228,19.92982 8.37427,0 12.67837,-3.55555 12.67837,-3.55555 l -3.74269,-7.48538 c 0,0 -3.08772,2.38596 -7.57895,2.38596 z"/>
		<path d="m 827.63854,520.67836 c 0,11.27486 8.04678,20.02339 19.46199,20.02339 11.08772,0 19.4152,-8.74853 19.4152,-20.02339 0,-11.27485 -8.70175,-19.97661 -19.4152,-19.97661 -10.61989,0 -19.46199,8.70176 -19.46199,19.97661 z m 9.49708,0 c 0,-5.75438 3.18128,-11.50877 9.96491,-11.50877 6.83041,0 9.91813,5.75439 9.91813,11.50877 0,5.75439 -2.90059,11.50877 -9.91813,11.50877 -7.20468,0 -9.96491,-5.75438 -9.96491,-11.50877 z"/>
		<path d="m 907.30297,540 h 8.79533 l -3.46199,-38.59649 h -9.35673 l -8.5614,22.269 -8.5614,-22.269 h -9.35673 L 873.33806,540 h 8.79532 l 1.82456,-22.87719 h 0.23392 l 7.90644,22.64327 h 5.23976 l 7.90643,-22.64327 h 0.23392 z"/>
		<path d="M 924.6217,501.40351 V 540 h 8.79532 v -14.31579 h 5.28655 c 7.53217,0 13.19298,-4.44444 13.19298,-12.39766 0,-8 -5.66081,-11.88304 -13.19298,-11.88304 z m 8.79532,17.26316 v -10.24562 h 2.47953 c 3.46199,0 6.73685,1.16959 6.73685,5.1462 0,3.92983 -3.27486,5.09942 -6.73685,5.09942 z"/>
		<path d="M 977.36735,501.40351 H 969.227 L 953.64805,540 h 9.45029 l 2.85381,-7.7193 H 980.6422 L 983.49601,540 h 9.45029 z m 0.2807,23.15789 h -8.70175 l 4.30409,-11.22807 h 0.0936 z"/>
		<path d="m 1008.2014,516.04678 h 0.094 L 1023.64,540 h 8.7953 v -38.59649 h -8.7953 v 23.95321 h -0.094 l -15.345,-23.95321 h -8.79534 V 540 h 8.79534 z"/>
		<path d="m 1034.6437,501.40351 14.2222,21.28655 V 540 h 8.7953 v -17.30994 l 14.2222,-21.28655 h -10.5731 l -8.0468,12.35088 -8.0467,-12.35088 z"/>
	</g>
</svg>
